<?xml version="1.0" encoding="UTF-8"?><svg id="Ebene_1" xmlns="http://www.w3.org/2000/svg" viewBox="0 0 141.73 141.73"><defs><style>.cls-1{fill:none;}.cls-2{fill:#1d1d1b;}</style></defs><rect class="cls-1" x="43.48" y="110.5" width="1" height="8.71"/><path class="cls-1" d="m80,99.75c-.05.01-.11.01-.17.02v7.77h1.02v-8.17c-.25.18-.54.31-.86.38Z"/><path class="cls-1" d="m67.02,109.26c0,7.42.4,10.54,1.29,10.54.06,0,.11-.02.17-.04-.43-2.8-.51-6.87-.51-11.09,0-2.98.09-6.84.53-9.66-.06-.06-.13-.1-.2-.1-.89,0-1.27,3.44-1.27,10.35Z"/><rect class="cls-1" x="43.45" y="99.45" width="1.03" height="7.38"/><path class="cls-1" d="m32.13,98.83c-.51,0-.91,1.13-.91,3.4,0,2.03.42,3.36,1.5,5.66,1.23,2.66,1.53,5.58,1.53,7.69,0,1.54-.09,2.93-.25,4.1.07.04.14.08.21.08.58,0,.98-1.21.98-3.67,0-2.19-.46-3.63-1.52-6.01-1.25-2.81-1.49-4.65-1.49-7.77,0-1.17.08-2.32.22-3.36-.08-.07-.18-.12-.28-.12Z"/><path class="cls-1" d="m82.76,107.54h.37c.55,0,.96-1.68.96-4.18,0-2.66-.42-4.02-.98-4.02h-.33c.18,1.23.25,2.6.25,3.79,0,1.91-.11,3.34-.27,4.41Z"/><path class="cls-1" d="m73.83,49.09c.63,0,1.14,2.61,1.13,5.82,0,3.21-.52,5.82-1.15,5.82-.63,0-1.14-2.61-1.13-5.82,0-3.21.52-5.82,1.15-5.82Zm-5.91,0c.63,0,1.14,2.61,1.13,5.82,0,3.21-.52,5.82-1.15,5.82-.63,0-1.14-2.61-1.13-5.82,0-3.21.52-5.82,1.15-5.82Z"/><path class="cls-1" d="m69.15,112.42c.04,1.84.11,3.3.23,4.42.13-1.31.17-2.89.17-4.42h-.4Z"/><path class="cls-1" d="m81.94,101.94v2.81c.03-.43.05-.89.05-1.39s-.02-.99-.05-1.41Z"/><rect class="cls-2" x="9.91" y="95.74" width="1.09" height="27.18"/><rect class="cls-2" x="7.81" y="95.74" width="1.09" height="27.18"/><polygon class="cls-2" points="22.86 95.74 22.86 113.24 21.86 105.28 21.86 95.74 20.76 95.74 20.76 96.57 20.65 95.74 19.45 95.74 19.45 102.87 18.56 95.74 17.35 95.74 17.35 122.92 18.46 122.92 18.46 103.67 19.45 111.38 19.45 122.92 20.56 122.92 20.56 119.98 20.94 122.92 21.86 122.92 21.86 113.74 23.04 122.92 23.95 122.92 23.95 95.74 22.86 95.74"/><path class="cls-2" d="m34.82,107.89c-1.02-2.18-1.44-3.49-1.49-5.35l.83-.82c0-.76-.06-1.77-.2-2.77.08-.07.17-.12.26-.12.81,0,1,2.62,1.04,3.87l.99-.98c0-2.19-.45-6.48-2.07-6.48-.4,0-.73.32-1.01.86-.28-.52-.64-.86-1.08-.86-1.32,0-2.01,3.51-2.01,7.07,0,3.12.23,4.96,1.49,7.77.96,2.16,1.42,3.56,1.5,5.43l-.97,1.24c.01.86.08,1.92.23,2.94-.07.04-.14.07-.22.07-.68,0-1-1.87-1.13-4.26l-.98,1.25c.04,2.5.54,6.72,2.12,6.72.4,0,.75-.29,1.04-.82.28.5.63.81,1.05.81,1.36,0,2.13-3.28,2.13-7.89,0-2.11-.3-5.04-1.53-7.69Zm-.61,11.87c-.08,0-.15-.03-.21-.08.17-1.17.25-2.56.25-4.1,0-2.11-.3-5.04-1.53-7.69-1.08-2.3-1.5-3.63-1.5-5.66,0-2.27.4-3.4.91-3.4.1,0,.19.04.28.12-.15,1.03-.22,2.19-.22,3.36,0,3.12.23,4.96,1.49,7.77,1.05,2.38,1.52,3.83,1.52,6.01,0,2.46-.4,3.67-.98,3.67Z"/><rect class="cls-2" x="45.55" y="99.45" width=".79" height="0"/><path class="cls-2" d="m45.55,99.45h2.89v-3.71h-3.95s-2.1,0-2.1,0v27.18h3.95s2.1,0,2.1,0v-3.71h-2.86v-8.71h1.98v-3.67h-2.01v-7.38h0Zm-2.1,0h1.03v7.38h-1.03v-7.38Zm.03,11.05h1v8.71h-1v-8.71Z"/><path class="cls-2" d="m96.54,95.74v19.25c0,3.01-.39,4.61-1.08,4.61-.06,0-.11-.03-.17-.05.15-1.04.24-2.28.24-3.7v-20.11s-1.1,0-1.1,0v19.25c0,.71-.02,1.34-.07,1.89-.05-.56-.07-1.2-.07-1.89v-19.25h-1.11v20.07c0,1.45.09,2.71.24,3.77-.02,0-.05.02-.07.02-.79,0-1.16-1.84-1.16-4.61v-19.25h-1.11v20.07c0,4.92.97,7.65,2.27,7.65.35,0,.7-.27,1-.78.32.51.69.78,1.09.78,1.14,0,2.17-2.73,2.17-7.62v-20.11s-1.1,0-1.1,0Z"/><g><path class="cls-1" d="m105.91,99.34h-.85v8.67h.88s.09-.01.14-.03v-8.61c-.05-.02-.11-.03-.16-.03Z"/><path class="cls-1" d="m108.01,99.33h-.29c.25,1.66.31,3.45.31,4.26,0,1.78-.1,3.24-.27,4.41h.27c.44,0,1-.9,1-4.3,0-3.67-.55-4.37-1.02-4.37Z"/><path class="cls-2" d="m107.97,95.74h-1.9v.04c-.07-.02-.13-.04-.2-.04h-1.9v27.18h1.09v-11.44h1.01v11.44h1.09v-11.44h1.12c.96,0,1.86-2.58,1.86-7.89,0-1.72-.22-7.85-2.16-7.85Zm-2.04,12.26h-.88v-8.67h.85c.05,0,.11.01.16.03v8.61s-.09.03-.14.03Zm2.1,0h-.27c.17-1.17.27-2.63.27-4.41,0-.81-.05-2.59-.31-4.26h.29c.47,0,1.02.7,1.02,4.37,0,3.4-.56,4.3-1,4.3Z"/></g><g><path class="cls-1" d="m119.96,99.33h-.29c.25,1.66.31,3.45.31,4.26,0,1.78-.1,3.24-.27,4.41h.27c.44,0,1-.9,1-4.3,0-3.67-.55-4.37-1.02-4.37Z"/><path class="cls-1" d="m117.86,99.34h-.85v8.67h.88s.09-.01.14-.03v-8.61c-.05-.02-.11-.03-.16-.03Z"/><path class="cls-2" d="m119.92,95.74h-1.9v.04c-.07-.02-.13-.04-.2-.04h-1.9v27.18h1.09v-11.44h1.01v11.44h1.09v-11.44h1.12c.96,0,1.86-2.58,1.86-7.89,0-1.72-.22-7.85-2.16-7.85Zm-2.04,12.26h-.88v-8.67h.85c.05,0,.11.01.16.03v8.61s-.09.03-.14.03Zm2.1,0h-.27c.17-1.17.27-2.63.27-4.41,0-.81-.05-2.59-.31-4.26h.29c.47,0,1.02.7,1.02,4.37,0,3.4-.56,4.3-1,4.3Z"/></g><g><rect class="cls-1" x="128.93" y="99.45" width="1.03" height="7.38"/><g><rect class="cls-1" x="128.93" y="99.45" width="1.03" height="7.38"/><rect class="cls-1" x="128.97" y="110.5" width="1" height="8.71"/><path class="cls-2" d="m131.82,99.45h0s2.1,0,2.1,0v-3.71h-3.95s-2.1,0-2.1,0v27.18h3.95s2.1,0,2.1,0v-3.71h-2.86v-8.71h1.98v-3.67h-2.01v-7.38h.79Zm-2.89,0h1.03v7.38h-1.03v-7.38Zm.03,11.05h1v8.71h-1v-8.71Z"/></g></g><path class="cls-2" d="m80.9,99.34h-.04v.03s.02-.02.04-.03Z"/><path class="cls-2" d="m112.12,59.56c0-1.35-1.09-2.44-2.44-2.45l-17.13-.02,16.71-3.79c1.12-.25,1.9-1.23,1.9-2.38,0-.18-.02-.36-.06-.54-.14-.64-.53-1.18-1.08-1.53-.55-.35-1.21-.46-1.84-.32l-16.71,3.79,15.44-7.42c.84-.4,1.39-1.27,1.39-2.2,0-.37-.08-.72-.24-1.06-.28-.59-.78-1.03-1.39-1.25-.62-.22-1.28-.18-1.87.1l-15.45,7.42,13.41-10.67c.59-.47.92-1.16.92-1.91,0-.55-.19-1.09-.53-1.52-.41-.51-.99-.83-1.63-.91-.65-.08-1.29.11-1.8.52l-13.41,10.67,10.7-13.38c.34-.43.53-.97.53-1.52,0-.75-.33-1.44-.92-1.91-1.05-.84-2.59-.67-3.43.38l-10.7,13.38,7.45-15.43c.16-.33.24-.69.24-1.06,0-.93-.54-1.8-1.38-2.2-1.21-.58-2.68-.07-3.26,1.14l-7.45,15.43,3.83-16.7c.04-.18.06-.36.06-.54,0-1.15-.78-2.13-1.9-2.38-.63-.15-1.29-.03-1.84.31-.55.35-.94.89-1.09,1.52l-3.83,16.7.02-17.13c0-1.35-1.09-2.44-2.44-2.45-1.35,0-2.44,1.09-2.45,2.44l-.02,17.13-3.79-16.71c-.3-1.31-1.61-2.14-2.92-1.84-1.12.25-1.9,1.23-1.9,2.38,0,.18.02.36.06.54l3.79,16.71-7.42-15.44c-.58-1.21-2.04-1.73-3.26-1.14-.84.4-1.39,1.27-1.39,2.2,0,.37.08.72.24,1.06l7.42,15.45-10.67-13.41c-.84-1.05-2.38-1.23-3.43-.39-.59.47-.92,1.16-.92,1.91,0,.56.18,1.09.53,1.52l10.67,13.41-13.38-10.7c-.51-.41-1.15-.59-1.8-.52-.65.07-1.23.39-1.64.9-.35.44-.53.96-.53,1.52,0,.75.33,1.44.92,1.91l13.38,10.7-15.43-7.45c-1.21-.59-2.68-.08-3.26,1.14-.16.33-.24.69-.24,1.06,0,.93.54,1.8,1.38,2.2l15.43,7.45-16.7-3.83c-1.31-.3-2.63.52-2.93,1.83-.04.18-.06.36-.06.54,0,1.15.78,2.13,1.9,2.38l16.7,3.83-17.13-.02c-1.35,0-2.44,1.09-2.45,2.44,0,1.35,1.09,2.44,2.44,2.45l17.13.02-16.71,3.79c-1.12.25-1.9,1.23-1.9,2.38,0,.18.02.36.06.54.14.64.53,1.18,1.08,1.53.55.35,1.21.46,1.84.32l16.71-3.8-15.45,7.42c-.84.4-1.39,1.27-1.39,2.2,0,.37.08.72.24,1.06.28.59.78,1.03,1.39,1.25.62.22,1.28.18,1.87-.1l15.45-7.42-13.41,10.67c-.59.47-.92,1.16-.92,1.91,0,.56.18,1.09.53,1.52.41.51.99.83,1.63.91.65.07,1.29-.11,1.8-.52l13.41-10.67-10.7,13.38c-.35.44-.53.96-.53,1.52,0,.75.33,1.44.92,1.91.51.41,1.15.59,1.8.52.65-.07,1.23-.39,1.64-.9l10.7-13.39-7.45,15.43c-.16.33-.24.69-.24,1.06,0,.93.54,1.8,1.38,2.2.47.23.98.29,1.48.2v26.05h3.84s2.1,0,2.1,0v-3.63h-2.73v-23.55h-1.11v23.55h-.99v-22.92c.28-.22.51-.5.67-.84l7.45-15.43-3.83,16.7c-.04.18-.06.36-.06.54,0,1.15.78,2.13,1.9,2.38.63.15,1.29.04,1.84-.31.55-.35.94-.89,1.08-1.52l3.83-16.7v14.07c-.07-.01-.13-.03-.19-.03-2.08,0-2.35,8.12-2.35,13.43,0,7.65.26,14.8,2.39,14.8.35,0,.68-.39.94-1,.31.63.68,1,1.16,1,.72,0,1.34-1.6,1.54-3.51l.04,2.97h.65v-13.71h-1.99v3.2h1.05c0,3.45-.21,7.15-1.16,7.36v-10.56h-1.37c0-2.21.04-4.02.12-5.52l.02-.02,1.11-1.05c-.03-.6-.07-1.25-.12-1.92.19.05.38.08.58.08.11,0,.21-.02.31-.03.12.84.2,1.87.23,2.93l1.11-1.05c-.03-.73-.08-1.54-.16-2.35.58-.45.96-1.14.96-1.93l.02-17.13,3.8,16.71c.14.64.53,1.18,1.08,1.53.19.12.39.2.6.26v23.23h1.08v-12.03h.96l.06.66v11.37h1.08v-.31l.03.31h1.14l-1.17-11.16v-.87h.96l1.17,12.03h1.14l-1.3-12.38s1.22-1.09,1.22-7.42c0-3.09-.49-7.38-2.03-7.38h-1.5l-3.55-15.62,7.42,15.44c.28.59.78,1.03,1.39,1.25.61.22,1.28.18,1.87-.1.84-.4,1.38-1.27,1.39-2.2,0-.37-.08-.73-.24-1.06l-7.42-15.44,10.67,13.41c.41.51.99.83,1.63.91.65.08,1.29-.11,1.8-.52.59-.47.92-1.16.92-1.91,0-.55-.19-1.09-.53-1.52l-10.67-13.41,13.39,10.7c.51.41,1.15.59,1.8.52.65-.07,1.23-.39,1.64-.9.34-.43.53-.97.53-1.52,0-.75-.33-1.44-.92-1.91l-13.38-10.7,15.43,7.45c.59.28,1.25.32,1.87.11.62-.21,1.11-.66,1.39-1.24.16-.33.24-.69.24-1.06,0-.93-.54-1.8-1.38-2.2l-15.43-7.45,16.7,3.83c.64.15,1.29.04,1.84-.31.55-.35.94-.89,1.08-1.52.04-.18.06-.36.06-.54,0-1.15-.78-2.13-1.9-2.38l-16.7-3.83,17.13.02c1.35,0,2.44-1.09,2.45-2.44Zm-42.58,52.86c0,1.53-.04,3.12-.17,4.42-.12-1.12-.19-2.59-.23-4.42h.4Zm13.24-13.08h.33c.56,0,.98,1.37.98,4.02,0,2.5-.41,4.18-.96,4.18h-.37c.16-1.07.27-2.5.27-4.41,0-1.19-.07-2.56-.25-3.79Zm-.85,2.61c.03.42.05.89.05,1.41s-.02.96-.05,1.39v-2.81Zm-13.47,17.82c-.05.02-.11.04-.17.04-.89,0-1.29-3.12-1.29-10.54,0-6.91.38-10.35,1.27-10.35.07,0,.14.04.2.1-.44,2.82-.53,6.68-.53,9.66,0,4.23.08,8.29.51,11.09Zm12.39-20.4v8.17h-1.02v-7.77c.06,0,.11,0,.17-.02.32-.07.6-.21.86-.38v-.03h.04s-.02.02-.04.03Zm28.24-32.95c.84.19,1.42.92,1.42,1.78,0,.14-.02.27-.05.41-.11.48-.4.88-.81,1.14-.41.26-.9.34-1.38.23l-22.02-5.05,20.34,9.82c.63.3,1.03.95,1.03,1.65,0,.28-.06.54-.18.79-.21.44-.58.77-1.04.93-.46.16-.96.13-1.4-.08l-20.34-9.82,17.65,14.1c.44.35.69.87.69,1.43,0,.42-.14.81-.4,1.14-.3.38-.74.62-1.22.67-.48.06-.96-.08-1.34-.39l-17.65-14.1,14.07,17.68c.26.33.4.72.4,1.14,0,.56-.25,1.08-.69,1.43-.38.3-.86.44-1.35.39-.49-.06-.92-.3-1.22-.68l-14.07-17.68,9.78,20.36c.12.25.18.52.18.79,0,.7-.41,1.34-1.04,1.65-.44.21-.94.24-1.4.08-.46-.16-.83-.49-1.04-.93l-9.78-20.36,4.73,20.81h0s.28,1.22.28,1.22c.03.13.05.27.05.41,0,.43-.16.84-.43,1.16-.25.3-.59.53-.99.62-.37.09-.76.05-1.1-.1-.09-.04-.19-.08-.27-.14-.41-.26-.7-.67-.81-1.14l-5-22.03-.02,22.59c0,.44-.17.85-.43,1.16-.29.35-.71.59-1.19.64-.07,0-.13.02-.21.02-.23,0-.44-.05-.64-.12-.16-.06-.31-.14-.45-.25-.45-.33-.74-.86-.74-1.46v-1.54s0-1.12,0-1.12l.02-19.92-5.05,22.02c-.11.48-.4.88-.81,1.14-.41.26-.9.34-1.38.23-.82-.19-1.42-.94-1.42-1.78,0-.14.02-.27.05-.41l5.05-22.02-9.82,20.34c-.09.18-.21.34-.34.48-.19.2-.43.36-.7.45-.06.02-.12.03-.18.04-.41.1-.83.06-1.21-.13-.63-.3-1.03-.95-1.03-1.65,0-.28.06-.54.18-.79l9.82-20.34-14.1,17.65c-.3.38-.74.62-1.22.68-.48.05-.96-.08-1.34-.39-.44-.35-.69-.87-.69-1.43,0-.42.14-.81.4-1.14l14.1-17.65-17.68,14.06c-.38.3-.86.44-1.35.39-.49-.05-.92-.3-1.22-.68-.26-.33-.4-.72-.4-1.14,0-.56.25-1.08.69-1.43l17.68-14.07-20.36,9.78c-.44.21-.94.24-1.4.08-.46-.16-.83-.49-1.04-.93-.12-.25-.18-.52-.18-.79,0-.7.41-1.34,1.04-1.65l20.36-9.78-22.03,5c-.47.11-.96.02-1.38-.24-.41-.26-.7-.67-.81-1.14-.03-.13-.05-.27-.05-.41,0-.86.59-1.59,1.42-1.78l22.03-5-22.59-.02c-1.01,0-1.83-.82-1.83-1.83,0-1.01.82-1.83,1.83-1.83l22.59.02-22.02-5.05c-.84-.19-1.42-.92-1.42-1.78,0-.14.02-.27.05-.41.23-.98,1.21-1.6,2.19-1.37l22.02,5.05-20.34-9.82c-.63-.3-1.03-.95-1.03-1.65,0-.28.06-.54.18-.79.44-.91,1.53-1.29,2.44-.85l20.34,9.82-17.65-14.1c-.44-.35-.69-.87-.69-1.43,0-.42.14-.81.4-1.14.3-.38.74-.62,1.22-.68.49-.05.96.08,1.34.39l17.65,14.1-14.07-17.68c-.26-.33-.4-.72-.4-1.14,0-.56.25-1.08.69-1.43.79-.63,1.94-.5,2.57.29l14.07,17.68-9.78-20.36c-.12-.25-.18-.52-.18-.79,0-.7.41-1.34,1.04-1.65.91-.44,2-.05,2.44.86l9.78,20.36-5-22.03c-.03-.13-.05-.27-.05-.41,0-.86.59-1.59,1.42-1.78.98-.22,1.96.39,2.19,1.38l5,22.03.02-22.59c0-1.01.82-1.83,1.83-1.83,1.01,0,1.83.82,1.83,1.83l-.02,22.59,5.05-22.02c.11-.48.4-.88.81-1.14.41-.26.91-.34,1.38-.23.84.19,1.42.92,1.42,1.78,0,.14-.02.27-.05.41l-5.05,22.02,9.82-20.34c.44-.91,1.53-1.29,2.44-.85.63.3,1.03.95,1.03,1.65,0,.28-.06.54-.18.79l-9.82,20.34,14.1-17.65c.63-.79,1.78-.92,2.57-.29.44.35.69.87.69,1.43,0,.42-.14.81-.4,1.14l-14.1,17.65,17.68-14.07c.38-.3.86-.44,1.35-.39.48.06.92.3,1.22.68.26.33.4.72.4,1.14,0,.56-.25,1.08-.69,1.43l-17.68,14.06,20.36-9.78c.44-.21.94-.24,1.4-.08.46.16.83.49,1.04.93.12.25.18.52.18.79,0,.7-.41,1.34-1.04,1.65l-20.36,9.78,22.03-5c.47-.11.96-.02,1.38.24.41.26.7.67.81,1.14.03.13.05.27.05.41,0,.86-.59,1.59-1.42,1.78l-22.03,5,22.59.02c1.01,0,1.83.82,1.83,1.83,0,1.01-.82,1.83-1.83,1.83l-22.59-.02,22.02,5.05Z"/><path class="cls-2" d="m67.91,60.72c.63,0,1.14-2.6,1.15-5.82,0-3.21-.5-5.82-1.13-5.82-.63,0-1.14,2.6-1.15,5.82,0,3.21.5,5.82,1.13,5.82Z"/><path class="cls-2" d="m73.82,60.72c.63,0,1.14-2.6,1.15-5.82,0-3.21-.5-5.82-1.13-5.82-.63,0-1.14,2.6-1.15,5.82,0,3.21.5,5.82,1.13,5.82Z"/></svg>