<?xml version="1.0" encoding="UTF-8"?><svg id="Ebene_1" xmlns="http://www.w3.org/2000/svg" viewBox="0 0 141.73 141.73"><defs><style>.cls-1{fill:#1d1d1b;}</style></defs><g><path class="cls-1" d="m70.89,97.11c-1.35,0-2.44-1.1-2.44-2.45l.02-17.13-3.83,16.7c-.15.64-.53,1.18-1.08,1.52-.55.35-1.21.46-1.84.31-1.12-.26-1.9-1.24-1.9-2.38,0-.18.02-.36.06-.54l3.83-16.7-7.45,15.43c-.28.59-.78,1.03-1.39,1.24-.62.22-1.28.18-1.87-.11-.84-.41-1.38-1.27-1.38-2.2,0-.37.08-.72.24-1.06l7.45-15.43-10.7,13.39c-.41.51-.99.83-1.64.9-.65.07-1.29-.11-1.8-.52-.58-.47-.92-1.16-.92-1.91,0-.56.19-1.08.53-1.52l10.7-13.38-13.41,10.67c-.51.41-1.15.59-1.8.52-.65-.07-1.23-.4-1.63-.91-.35-.44-.53-.96-.53-1.52,0-.75.34-1.44.92-1.91l13.41-10.67-15.45,7.42c-.59.28-1.25.32-1.87.1-.62-.22-1.11-.66-1.39-1.25-.16-.33-.24-.69-.24-1.06,0-.93.55-1.8,1.39-2.2l15.45-7.42-16.71,3.8c-.64.14-1.29.03-1.84-.32-.55-.35-.94-.89-1.08-1.53-.04-.18-.06-.36-.06-.54,0-1.15.78-2.12,1.9-2.38l16.71-3.79-17.13-.02c-1.35,0-2.44-1.1-2.44-2.45,0-1.35,1.1-2.44,2.45-2.44l17.13.02-16.7-3.83c-1.12-.26-1.9-1.24-1.9-2.38,0-.18.02-.36.06-.54.3-1.31,1.61-2.13,2.93-1.83l16.7,3.83-15.43-7.45c-.84-.41-1.38-1.27-1.38-2.2,0-.37.08-.72.24-1.06.59-1.21,2.05-1.72,3.26-1.14l15.43,7.45-13.38-10.7c-.58-.47-.92-1.16-.92-1.91,0-.56.19-1.08.53-1.52.41-.51.99-.83,1.64-.9.65-.07,1.29.11,1.8.52l13.38,10.7-10.67-13.41c-.35-.44-.53-.96-.53-1.52,0-.75.34-1.44.92-1.91,1.05-.84,2.59-.66,3.43.39l10.67,13.41-7.42-15.45c-.16-.33-.24-.69-.24-1.06,0-.93.55-1.8,1.39-2.2,1.22-.58,2.68-.07,3.26,1.14l7.42,15.44-3.79-16.71c-.04-.18-.06-.36-.06-.54,0-1.15.78-2.12,1.9-2.38,1.32-.3,2.63.53,2.92,1.84l3.79,16.71.02-17.13c0-1.35,1.1-2.44,2.45-2.44s2.44,1.1,2.44,2.45l-.02,17.13,3.83-16.7c.15-.64.53-1.18,1.09-1.52.55-.35,1.21-.46,1.84-.31,1.12.26,1.9,1.24,1.9,2.38,0,.18-.02.36-.06.54l-3.83,16.7,7.45-15.43c.58-1.21,2.05-1.72,3.26-1.14.84.41,1.38,1.27,1.38,2.2,0,.37-.08.72-.24,1.06l-7.45,15.43,10.7-13.38c.84-1.05,2.38-1.22,3.43-.38.58.47.92,1.16.92,1.91,0,.55-.19,1.09-.53,1.52l-10.7,13.38,13.41-10.67c.51-.41,1.15-.59,1.8-.52.65.07,1.23.4,1.63.91.34.43.53.97.53,1.52,0,.75-.34,1.44-.92,1.91l-13.41,10.67,15.45-7.42c.59-.28,1.25-.32,1.87-.1.62.22,1.11.66,1.39,1.25.16.33.24.69.24,1.06,0,.93-.55,1.8-1.39,2.2l-15.44,7.42,16.71-3.79c.63-.14,1.29-.03,1.84.32.55.35.94.89,1.08,1.53.04.18.06.36.06.54,0,1.15-.78,2.12-1.9,2.38l-16.71,3.79,17.13.02c1.35,0,2.44,1.1,2.44,2.45s-1.1,2.44-2.45,2.44l-17.13-.02,16.7,3.83c1.12.26,1.9,1.24,1.9,2.38,0,.18-.02.36-.06.54-.15.64-.53,1.18-1.08,1.52-.55.35-1.21.46-1.84.31l-16.7-3.83,15.43,7.45c.84.41,1.38,1.27,1.38,2.2,0,.37-.08.72-.24,1.06-.28.59-.78,1.03-1.39,1.24-.62.22-1.28.18-1.87-.11l-15.43-7.45,13.38,10.7c.58.47.92,1.16.92,1.91,0,.55-.19,1.09-.53,1.52-.41.51-.99.83-1.64.9-.65.07-1.29-.11-1.8-.52l-13.39-10.7,10.67,13.41c.34.43.53.97.53,1.52,0,.75-.34,1.44-.92,1.91-.51.41-1.15.59-1.8.52-.65-.07-1.23-.4-1.63-.91l-10.67-13.41,7.42,15.44c.16.33.24.69.24,1.06,0,.93-.55,1.8-1.39,2.2-.59.28-1.25.32-1.87.1-.62-.22-1.11-.66-1.39-1.25l-7.42-15.44,3.79,16.71c.04.18.06.36.06.54,0,1.15-.78,2.12-1.9,2.38-.63.14-1.29.03-1.84-.32s-.94-.89-1.08-1.53l-3.8-16.71-.02,17.13c0,1.35-1.1,2.44-2.45,2.44Zm-1.8-25.03l-.02,22.59c0,1.01.82,1.83,1.83,1.83s1.83-.82,1.83-1.83l.02-22.59,5,22.03c.11.48.4.88.81,1.14s.9.34,1.38.24c.82-.19,1.42-.94,1.42-1.78,0-.14-.02-.27-.05-.41l-5-22.03,9.78,20.36c.21.44.58.77,1.04.93.46.16.96.13,1.4-.08.63-.3,1.04-.95,1.04-1.65,0-.28-.06-.54-.18-.79l-9.78-20.36,14.07,17.68c.3.38.74.62,1.22.68.48.05.96-.08,1.35-.39.44-.35.69-.87.69-1.43,0-.42-.14-.81-.4-1.14l-14.07-17.68,17.65,14.1c.38.31.86.45,1.34.39.48-.05.92-.29,1.22-.68.26-.33.4-.72.4-1.14,0-.56-.25-1.08-.69-1.43l-17.65-14.1,20.34,9.82c.44.21.94.24,1.4.08.46-.16.83-.49,1.04-.93.12-.25.18-.52.18-.79,0-.7-.4-1.35-1.03-1.65l-20.34-9.82,22.02,5.05c.48.11.96.03,1.38-.23.41-.26.7-.66.81-1.14.03-.13.05-.27.05-.41,0-.86-.58-1.59-1.42-1.78l-22.02-5.05,22.59.02c1.01,0,1.83-.82,1.83-1.83s-.82-1.83-1.83-1.83l-22.59-.02,22.03-5c.84-.19,1.42-.92,1.42-1.78,0-.14-.02-.27-.05-.41-.11-.48-.4-.88-.81-1.14-.41-.26-.9-.34-1.38-.24l-22.03,5,20.36-9.78c.63-.3,1.04-.95,1.04-1.65,0-.28-.06-.54-.18-.79-.21-.44-.58-.77-1.04-.93-.46-.16-.96-.13-1.4.08l-20.36,9.78,17.68-14.06c.44-.35.69-.87.69-1.43,0-.42-.14-.81-.4-1.14-.3-.38-.74-.62-1.22-.68-.49-.05-.96.08-1.35.39l-17.68,14.07,14.1-17.65c.26-.33.4-.72.4-1.14,0-.56-.25-1.08-.69-1.43-.79-.63-1.94-.5-2.57.29l-14.1,17.65,9.82-20.34c.12-.25.18-.52.18-.79,0-.7-.4-1.35-1.03-1.65-.91-.44-2-.06-2.44.85l-9.82,20.34,5.05-22.02c.03-.13.05-.27.05-.41,0-.86-.58-1.59-1.42-1.78-.47-.11-.96-.03-1.38.23-.41.26-.7.66-.81,1.14l-5.05,22.02.02-22.59c0-1.01-.82-1.83-1.83-1.83s-1.83.82-1.83,1.83l-.02,22.59-5-22.03c-.22-.98-1.21-1.6-2.19-1.38-.84.19-1.42.92-1.42,1.78,0,.14.02.27.05.41l5,22.03-9.78-20.36c-.44-.91-1.53-1.29-2.44-.86-.63.3-1.04.95-1.04,1.65,0,.28.06.54.18.79l9.78,20.36-14.07-17.68c-.63-.79-1.78-.92-2.57-.29-.44.35-.69.87-.69,1.43,0,.42.14.81.4,1.14l14.07,17.68-17.65-14.1c-.38-.31-.86-.44-1.34-.39-.49.05-.92.29-1.22.68-.26.33-.4.72-.4,1.14,0,.56.25,1.08.69,1.43l17.65,14.1-20.34-9.82c-.91-.44-2-.06-2.44.85-.12.25-.18.52-.18.79,0,.7.4,1.35,1.03,1.65l20.34,9.82-22.02-5.05c-.98-.23-1.96.39-2.19,1.37-.03.13-.05.27-.05.41,0,.86.58,1.59,1.42,1.78l22.02,5.05-22.59-.02c-1.01,0-1.83.82-1.83,1.83,0,1.01.82,1.83,1.83,1.83l22.59.02-22.03,5c-.84.19-1.42.92-1.42,1.78,0,.14.02.27.05.41.11.48.4.88.81,1.14.41.26.9.34,1.38.24l22.03-5-20.36,9.78c-.63.3-1.04.95-1.04,1.65,0,.28.06.54.18.79.21.44.58.77,1.04.93.46.16.96.13,1.4-.08l20.36-9.78-17.68,14.07c-.44.35-.69.87-.69,1.43,0,.42.14.81.4,1.14.3.38.74.62,1.22.68.48.06.96-.08,1.35-.39l17.68-14.06-14.1,17.65c-.26.33-.4.72-.4,1.14,0,.56.25,1.08.69,1.43.38.31.86.44,1.34.39.49-.05.92-.29,1.22-.68l14.1-17.65-9.82,20.34c-.12.25-.18.52-.18.79,0,.7.4,1.35,1.03,1.65.44.21.94.24,1.4.08.46-.16.83-.49,1.04-.93l9.82-20.34-5.05,22.02c-.03.13-.05.27-.05.41,0,.84.6,1.59,1.42,1.78.48.11.96.03,1.38-.23.41-.26.7-.66.81-1.14l5.05-22.02Z"/><g><ellipse class="cls-1" cx="67.98" cy="51.24" rx="5.82" ry="1.14" transform="translate(16.67 119.17) rotate(-89.94)"/><ellipse class="cls-1" cx="73.89" cy="51.25" rx="5.82" ry="1.14" transform="translate(22.57 125.08) rotate(-89.94)"/></g></g><g><g><path class="cls-1" d="m18.79,120.53c.86.34,1.58,1.39,1.58,2.59-.02,3.57-3.25,4-6.72,3.98-2.4-.01-6.08-.49-6.06-3.97.01-2.72,2.01-3.39,3.36-3.61l.47,1.86c-1.1.1-2.16.59-2.16,1.63,0,1.48,1.55,2.13,4.68,2.14,3.36.01,4.78-.65,4.78-2.14,0-1.71-1.72-2.09-3.33-2.1v1.77s-1.46,0-1.46,0v-3.34s6.22.03,6.22.03v1.1s-1.35.06-1.35.06Z"/><path class="cls-1" d="m30.6,126.54l.02-3.75c.01-2.6,1.96-3.4,3.36-3.4,2.86.01,3.35,2.08,3.35,2.07l5.61-2.15v1.91s-5.46,1.94-5.46,1.94v1.61s5.44.02,5.44.02v1.8s-12.31-.05-12.31-.05Zm1.64-3.76v1.96s3.7.02,3.7.02v-2c.01-.92-.74-1.61-1.88-1.62-1.2,0-1.82.7-1.83,1.64Z"/><path class="cls-1" d="m62.54,119.69c2.21,0,3.44,1.75,3.43,3.66,0,2.17-1.25,3.8-3.48,3.79l-9.09-.04v-1.86s8.72.04,8.72.04c1.25,0,2.09-.61,2.09-1.94,0-1.15-.72-1.81-2.08-1.81l-8.71-.04v-1.86s9.11.06,9.11.06Z"/><path class="cls-1" d="m76.21,126.39v-3.18c.03-3.25,2.8-3.61,3.58-3.61,2.4.01,3.56,1.52,3.56,3.13v1.87s5.17.02,5.17.02v1.82s-12.31-.05-12.31-.05Zm1.64-3.25v1.43s3.92.02,3.92.02v-1.47c0-.74-.39-1.68-1.93-1.69-1.66,0-1.98.91-1.99,1.71Z"/><path class="cls-1" d="m99.01,126.48v-3.18c.03-3.25,2.8-3.61,3.58-3.61,2.4.01,3.56,1.52,3.56,3.13v1.87s5.17.02,5.17.02v1.82s-12.31-.05-12.31-.05Zm1.64-3.25v1.43s3.92.02,3.92.02v-1.47c0-.74-.39-1.68-1.93-1.69-1.66,0-1.98.91-1.99,1.71Z"/><path class="cls-1" d="m121.82,126.65l.03-6.63h1.68s-.02,4.85-.02,4.85h3.34s.01-3.36.01-3.36h1.66s-.01,3.33-.01,3.33l3.94.02.02-4.79h1.68s-.03,6.64-.03,6.64l-12.3-.05Z"/></g><g><path class="cls-1" d="m22.95,101.74h1.82s-.05,12.31-.05,12.31h-1.82s.05-12.31.05-12.31Z"/><path class="cls-1" d="m49.98,114.16h-1.54s-4.12-8.74-4.12-8.74l-.04,8.72h-1.86s.05-12.31.05-12.31h2.02s3.66,7.94,3.66,7.94l.03-7.92h1.84s-.05,12.31-.05,12.31Z"/><path class="cls-1" d="m70.72,114.5c-2.65-.01-3.47-1.92-3.54-3.06l1.65-.56c.21,1.08.73,1.93,1.88,1.94.97,0,1.65-.54,1.65-1.65,0-.99-.77-1.65-2.53-2.73-2.1-1.28-2.48-2.11-2.48-3.53,0-1.61,1.18-3.19,3.39-3.19,2.7.01,3.46,1.96,3.45,2.95l-1.66.43c-.07-.57-.38-1.75-1.74-1.76-.85,0-1.52.51-1.53,1.53,0,.92.7,1.52,2.5,2.57,2.06,1.21,2.55,2.54,2.55,3.49,0,2.09-1.31,3.57-3.59,3.56Z"/><path class="cls-1" d="m91.52,102.04l6.63.03v1.68s-4.85-.02-4.85-.02v3.34s3.36.01,3.36.01v1.66s-3.33-.01-3.33-.01l-.02,3.94,4.79.02v1.68s-6.64-.03-6.64-.03l.05-12.3Z"/><path class="cls-1" d="m115.21,102.14h1.86s-.05,10.67-.05,10.67l4.58.02v1.64s-6.44-.03-6.44-.03l.05-12.3Z"/></g></g></svg>